<?xml version="1.0" encoding="UTF-8" standalone="no"?>
<!-- Created with Inkscape (http://www.inkscape.org/) -->

<svg
   xmlns:dc="http://purl.org/dc/elements/1.1/"
   xmlns:cc="http://creativecommons.org/ns#"
   xmlns:rdf="http://www.w3.org/1999/02/22-rdf-syntax-ns#"
   xmlns:svg="http://www.w3.org/2000/svg"
   xmlns="http://www.w3.org/2000/svg"
   xmlns:xlink="http://www.w3.org/1999/xlink"
   xmlns:sodipodi="http://sodipodi.sourceforge.net/DTD/sodipodi-0.dtd"
   xmlns:inkscape="http://www.inkscape.org/namespaces/inkscape"
   width="192"
   height="192"
   id="svg2"
   version="1.1"
   inkscape:version="0.48.5 r10040"
   sodipodi:docname="thebluealliance.svg"
   inkscape:export-filename="C:\Users\Nathan\thebluealliance.png"
   inkscape:export-xdpi="90"
   inkscape:export-ydpi="90">
  <defs
     id="defs4">
    <linearGradient
       id="linearGradient4063">
      <stop
         style="stop-color:#000000;stop-opacity:0;"
         offset="0"
         id="stop4065" />
      <stop
         style="stop-color:#000000;stop-opacity:0.39215687;"
         offset="1"
         id="stop4067" />
    </linearGradient>
    <linearGradient
       id="linearGradient4053">
      <stop
         style="stop-color:#000000;stop-opacity:0.20408164;"
         offset="0"
         id="stop4055" />
      <stop
         style="stop-color:#000000;stop-opacity:0.06122449;"
         offset="1"
         id="stop4057" />
    </linearGradient>
    <filter
       style="color-interpolation-filters:sRGB;"
       inkscape:label="Drop Shadow"
       id="filter4041">
      <feFlood
         flood-opacity="0.2"
         flood-color="rgb(0,0,0)"
         result="flood"
         id="feFlood4043" />
      <feComposite
         in="flood"
         in2="SourceGraphic"
         operator="in"
         result="composite1"
         id="feComposite4045" />
      <feGaussianBlur
         in="composite"
         stdDeviation="6"
         result="blur"
         id="feGaussianBlur4047" />
      <feOffset
         dx="0"
         dy="6"
         result="offset"
         id="feOffset4049" />
      <feComposite
         in="SourceGraphic"
         in2="offset"
         operator="over"
         result="composite2"
         id="feComposite4051" />
    </filter>
    <linearGradient
       inkscape:collect="always"
       xlink:href="#linearGradient4053"
       id="linearGradient4059"
       x1="69.90625"
       y1="110.99006"
       x2="129.22269"
       y2="169.49005"
       gradientUnits="userSpaceOnUse" />
    <linearGradient
       inkscape:collect="always"
       xlink:href="#linearGradient4063"
       id="linearGradient4069"
       x1="93.69165"
       y1="4.7934804"
       x2="96.520081"
       y2="188.28769"
       gradientUnits="userSpaceOnUse"
       gradientTransform="matrix(1,0,0,1.0115163,0,858.1877)" />
    <mask
       maskUnits="userSpaceOnUse"
       id="mask4093">
      <path
         transform="translate(-0.2979437,860.67053)"
         sodipodi:type="arc"
         style="fill:#3f51b5;fill-opacity:1;fill-rule:evenodd;stroke:none"
         id="path4095"
         sodipodi:cx="96"
         sodipodi:cy="96"
         sodipodi:rx="88"
         sodipodi:ry="88"
         d="M 184,96 A 88,88 0 1 1 8,96 88,88 0 1 1 184,96 z" />
    </mask>
    <linearGradient
       inkscape:collect="always"
       xlink:href="#linearGradient4063-9"
       id="linearGradient4069-4"
       x1="93.69165"
       y1="4.7934804"
       x2="96.520081"
       y2="188.28769"
       gradientUnits="userSpaceOnUse"
       gradientTransform="matrix(1,0,0,1.0115163,0,858.1877)" />
    <linearGradient
       id="linearGradient4063-9">
      <stop
         style="stop-color:#000000;stop-opacity:0;"
         offset="0"
         id="stop4065-4" />
      <stop
         style="stop-color:#000000;stop-opacity:0.39215687;"
         offset="1"
         id="stop4067-6" />
    </linearGradient>
    <mask
       maskUnits="userSpaceOnUse"
       id="mask4093-0">
      <path
         transform="translate(-0.2979437,860.67053)"
         sodipodi:type="arc"
         style="fill:#3f51b5;fill-opacity:1;fill-rule:evenodd;stroke:none"
         id="path4095-3"
         sodipodi:cx="96"
         sodipodi:cy="96"
         sodipodi:rx="88"
         sodipodi:ry="88"
         d="M 184,96 A 88,88 0 1 1 8,96 88,88 0 1 1 184,96 z" />
    </mask>
    <linearGradient
       y2="188.28769"
       x2="96.520081"
       y1="4.7934804"
       x1="93.69165"
       gradientTransform="matrix(1,0,0,1.0115163,0,858.1877)"
       gradientUnits="userSpaceOnUse"
       id="linearGradient4115"
       xlink:href="#linearGradient4063-9"
       inkscape:collect="always" />
    <filter
       style="color-interpolation-filters:sRGB;"
       inkscape:label="Drop Shadow"
       id="filter3118">
      <feFlood
         flood-opacity="0.75"
         flood-color="rgb(0,0,0)"
         result="flood"
         id="feFlood3120" />
      <feComposite
         in="flood"
         in2="SourceGraphic"
         operator="in"
         result="composite1"
         id="feComposite3122" />
      <feGaussianBlur
         in="composite"
         stdDeviation="2"
         result="blur"
         id="feGaussianBlur3124" />
      <feOffset
         dx="0"
         dy="3"
         result="offset"
         id="feOffset3126" />
      <feComposite
         in="SourceGraphic"
         in2="offset"
         operator="over"
         result="composite2"
         id="feComposite3128" />
    </filter>
  </defs>
  <sodipodi:namedview
     id="base"
     pagecolor="#ffffff"
     bordercolor="#666666"
     borderopacity="1.0"
     inkscape:pageopacity="0"
     inkscape:pageshadow="2"
     inkscape:zoom="2.8284271"
     inkscape:cx="15.994936"
     inkscape:cy="95.421524"
     inkscape:document-units="px"
     inkscape:current-layer="layer1"
     showgrid="true"
     inkscape:window-width="1538"
     inkscape:window-height="877"
     inkscape:window-x="-8"
     inkscape:window-y="-8"
     inkscape:window-maximized="1"
     showguides="true"
     inkscape:guide-bbox="true"
     inkscape:snap-global="false">
    <inkscape:grid
       type="xygrid"
       id="grid2987"
       empspacing="4"
       visible="true"
       enabled="false"
       snapvisiblegridlinesonly="true"
       dotted="false" />
  </sodipodi:namedview>
  <metadata
     id="metadata7">
    <rdf:RDF>
      <cc:Work
         rdf:about="">
        <dc:format>image/svg+xml</dc:format>
        <dc:type
           rdf:resource="http://purl.org/dc/dcmitype/StillImage" />
        <dc:title></dc:title>
      </cc:Work>
    </rdf:RDF>
  </metadata>
  <g
     inkscape:label="Layer 1"
     inkscape:groupmode="layer"
     id="layer1"
     transform="translate(0,-860.36218)"
     style="display:inline">
    <path
       d="M 0,0 0,192 M 4,0 4,192 M 8,0 8,192 M 12,0 12,192 M 16,0 16,192 M 20,0 20,192 M 24,0 24,192 M 28,0 28,192 M 32,0 32,192 M 36,0 36,192 M 40,0 40,192 M 44,0 44,192 M 48,0 48,192 M 52,0 52,192 M 56,0 56,192 M 60,0 60,192 M 64,0 64,192 M 68,0 68,192 M 72,0 72,192 M 76,0 76,192 M 80,0 80,192 M 84,0 84,192 M 88,0 88,192 M 92,0 92,192 M 96,0 96,192 m 4,-192 0,192 m 4,-192 0,192 m 4,-192 0,192 m 4,-192 0,192 m 4,-192 0,192 m 4,-192 0,192 m 4,-192 0,192 m 4,-192 0,192 m 4,-192 0,192 m 4,-192 0,192 m 4,-192 0,192 m 4,-192 0,192 m 4,-192 0,192 m 4,-192 0,192 m 4,-192 0,192 m 4,-192 0,192 m 4,-192 0,192 m 4,-192 0,192 m 4,-192 0,192 m 4,-192 0,192 m 4,-192 0,192 m 4,-192 0,192 m 4,-192 0,192 m 4,-192 0,192 M 0,0 192,0 M 0,4 192,4 M 0,8 192,8 M 0,12 192,12 M 0,16 192,16 M 0,20 192,20 M 0,24 192,24 M 0,28 192,28 M 0,32 192,32 M 0,36 192,36 M 0,40 192,40 M 0,44 192,44 M 0,48 192,48 M 0,52 192,52 M 0,56 192,56 M 0,60 192,60 M 0,64 192,64 M 0,68 192,68 M 0,72 192,72 M 0,76 192,76 M 0,80 192,80 M 0,84 192,84 M 0,88 192,88 M 0,92 192,92 M 0,96 192,96 m -192,4 192,0 m -192,4 192,0 m -192,4 192,0 m -192,4 192,0 m -192,4 192,0 m -192,4 192,0 m -192,4 192,0 m -192,4 192,0 m -192,4 192,0 m -192,4 192,0 m -192,4 192,0 m -192,4 192,0 m -192,4 192,0 m -192,4 192,0 m -192,4 192,0 m -192,4 192,0 m -192,4 192,0 m -192,4 192,0 m -192,4 192,0 m -192,4 192,0 m -192,4 192,0 m -192,4 192,0 m -192,4 192,0 m -192,4 192,0"
       style="fill:none;stroke:#000000;stroke-width:1pt;stroke-linecap:butt;stroke-linejoin:miter;stroke-opacity:1"
       id="path2985"
       inkscape:connector-curvature="0" />
    <path
       sodipodi:type="arc"
       style="fill:#5766c1;fill-opacity:1;fill-rule:evenodd;stroke:none;filter:url(#filter3118)"
       id="path2991"
       sodipodi:cx="96"
       sodipodi:cy="96"
       sodipodi:rx="88"
       sodipodi:ry="88"
       d="m 184,96 c 0,48.60106 -39.39894,88 -88,88 C 47.398942,184 8,144.60106 8,96 8,47.398942 47.398942,8 96,8 c 48.60106,0 88,39.398942 88,88 z"
       transform="translate(0,860.36218)" />
    <path
       style="fill:#008080;fill-opacity:1"
       d="m 92,128 0,19.59375 C 92,137 92,133 92,128 z"
       id="path3785"
       transform="translate(0,860.36218)"
       inkscape:connector-curvature="0"
       sodipodi:nodetypes="ccc" />
    <path
       style="fill:#008080;fill-opacity:1"
       d="m 100,988.36218 0,19.59372 c 0,-10.59372 0,-14.59372 0,-19.59372 z"
       id="path3785-7"
       inkscape:connector-curvature="0"
       sodipodi:nodetypes="ccc" />
    <path
       style="fill:url(#linearGradient4059);fill-opacity:1;fill-rule:evenodd;stroke:none"
       d="m 132,40 -62,26 -0.09375,60.90625 6.21875,16.78125 38.35892,38.29262 c 47.5284,-11.89169 71.06677,-51.24615 69.4067,-90.16762 z"
       transform="translate(0,860.36218)"
       id="path2991-5"
       inkscape:connector-curvature="0"
       sodipodi:nodetypes="ccccccc"
       inkscape:export-xdpi="90"
       inkscape:export-ydpi="90" />
    <path
       style="fill:#ffffff;fill-opacity:1;filter:url(#filter4041)"
       d="m 60,40 0,28 8,0 0,56 c 0,15.46404 12.536027,28 28,28 15.46397,0 28,-12.53596 28,-28 l 0,-56 8,0 0,-28 -72,0 z m 12,28 22,0 0,24 -22,0 0,-24 z m 26,0 22,0 0,24 -22,0 0,-24 z m -26,28 22,0 0,24 -22,0 0,-24 z m 26,0 22,0 0,24 -22,0 0,-24 z m -26,28 22,0 0,23.78125 C 81.696385,146.74955 72,136.57032 72,124 z m 26,0 22,0 c 0,12.57032 -9.69639,22.74955 -22,23.78125 L 98,124 z"
       transform="translate(0,860.36218)"
       id="rect3761"
       inkscape:connector-curvature="0" />
  </g>
  <g
     inkscape:groupmode="layer"
     id="layer2"
     inkscape:label="Foreground Gradient"
     style="display:none">
    <rect
       transform="translate(0.394954,-861.38159)"
       style="fill:url(#linearGradient4115);fill-opacity:1;stroke:none;display:inline"
       id="rect4061"
       width="185.26198"
       height="186.32262"
       x="2.1213202"
       y="862.85754"
       mask="url(#mask4093-0)" />
  </g>
</svg>
